<svg xmlns="http://www.w3.org/2000/svg" viewBox="0 0 32 32">
  <rect width="32" height="32" rx="6" fill="#0a0a0a"/>
  <!-- Grid dots for digital feel -->
  <circle cx="5" cy="5" r="0.7" fill="#3b82f6" opacity="0.3"/>
  <circle cx="27" cy="5" r="0.7" fill="#3b82f6" opacity="0.3"/>
  <circle cx="5" cy="27" r="0.7" fill="#3b82f6" opacity="0.3"/>
  <circle cx="27" cy="27" r="0.7" fill="#3b82f6" opacity="0.3"/>
  <!-- B letterform — geometric/digital style -->
  <path d="M9 6h8.5c1.8 0 3.2.5 4.1 1.4.9.9 1.4 2 1.4 3.3 0 1.1-.3 2-.9 2.7-.4.5-.9.8-1.5 1.1.8.3 1.5.8 2 1.4.7.9 1 2 1 3.2 0 1.5-.5 2.7-1.5 3.7-1 1-2.5 1.5-4.4 1.5H9V6zm4 8.5h4.2c.8 0 1.4-.2 1.8-.6.4-.4.6-.9.6-1.6 0-.7-.2-1.2-.6-1.6-.4-.4-1-.6-1.8-.6H13v4.4zm0 9h4.8c.9 0 1.6-.2 2.1-.7.5-.4.7-1 .7-1.8 0-.8-.2-1.4-.7-1.8-.5-.5-1.2-.7-2.1-.7H13v5z" fill="#ffffff"/>
  <!-- Circuit traces -->
  <line x1="7" y1="16" x2="9" y2="16" stroke="#3b82f6" stroke-width="0.8" opacity="0.5"/>
  <line x1="24" y1="10" x2="26" y2="10" stroke="#3b82f6" stroke-width="0.8" opacity="0.5"/>
  <line x1="24" y1="22" x2="26" y2="22" stroke="#3b82f6" stroke-width="0.8" opacity="0.5"/>
  <circle cx="26.5" cy="10" r="1" fill="none" stroke="#3b82f6" stroke-width="0.6" opacity="0.5"/>
  <circle cx="26.5" cy="22" r="1" fill="none" stroke="#3b82f6" stroke-width="0.6" opacity="0.5"/>
  <circle cx="6.5" cy="16" r="1" fill="none" stroke="#3b82f6" stroke-width="0.6" opacity="0.5"/>
</svg>
