<svg xmlns="http://www.w3.org/2000/svg" viewBox="0 0 256 153" fill="#ffffff">
  <path d="M72.4 55.4c0 3.1.3 5.7.9 7.5.7 1.9 1.5 3.9 2.7 6.1.4.7.6 1.4.6 2 0 .8-.5 1.7-1.6 2.5l-5.3 3.6c-.8.5-1.5.8-2.2.8-.8 0-1.7-.5-2.5-1.3-1.2-1.3-2.2-2.6-3.1-4-.8-1.4-1.7-3.1-2.6-5C52.6 75.5 44.3 79.4 34.3 79.4c-7.1 0-12.8-2-17-6.1s-6.3-9.5-6.3-16.3c0-7.2 2.5-13 7.7-17.5 5.2-4.4 12-6.6 20.8-6.6 2.9 0 5.8.3 9 .7 3.1.4 6.4 1.1 9.8 1.9v-6.2c0-6.4-1.3-10.9-4-13.6-2.7-2.6-7.3-3.9-13.8-3.9-3 0-6 .3-9.2 1.1-3.1.8-6.2 1.7-9.2 2.9-1.4.6-2.4.9-3 1.1-.6.2-1 .3-1.3.3-1.2 0-1.8-.9-1.8-2.6v-4.2c0-1.3.2-2.4.6-3 .4-.6 1.2-1.2 2.4-1.8 3-1.5 6.5-2.8 10.7-3.8C33.9.8 38.3.3 43 .3c10.1 0 17.5 2.3 22.2 6.9 4.7 4.6 7 11.5 7 20.8v27.5h.2zM38 68.3c2.8 0 5.7-.5 8.7-1.5 3.1-1 5.8-2.9 8-5.4 1.4-1.6 2.4-3.4 2.9-5.5.5-2 1-4.5 1-7.4V45c-2.5-.6-5.1-1.1-7.8-1.4-2.7-.3-5.3-.5-8-.5-5.7 0-9.8 1.1-12.6 3.4s-4.2 5.5-4.2 9.7c0 4 1 7 3.1 9s4.1 3.1 8 3.1zm68.1 9.2c-1.5 0-2.5-.3-3.2-.9-.7-.5-1.3-1.7-1.8-3.3L81.1 7.8c-.5-1.7-.8-2.8-.8-3.4 0-1.4.7-2.1 2.1-2.1h8.3c1.6 0 2.7.3 3.3.9.7.5 1.2 1.7 1.7 3.3l14.2 56.1 13.2-56.1c.4-1.7.9-2.8 1.6-3.3.7-.5 1.9-.9 3.4-.9h6.8c1.6 0 2.7.3 3.4.9.7.5 1.3 1.7 1.6 3.3l13.4 56.8L168 6.4c.5-1.7 1-2.8 1.7-3.3.7-.5 1.8-.9 3.3-.9h7.9c1.4 0 2.1.7 2.1 2.1 0 .4-.1.9-.2 1.4-.1.5-.3 1.2-.6 2.1l-20.4 65.5c-.5 1.7-1.1 2.8-1.8 3.3-.7.5-1.8.9-3.2.9h-7.3c-1.6 0-2.7-.3-3.4-.9-.7-.6-1.3-1.7-1.6-3.3L133.4 18.6l-13.1 54.6c-.4 1.7-.9 2.8-1.6 3.3-.7.6-1.9.9-3.4.9h-9.2zm130.9 2.3c-4.4 0-8.8-.5-13-1.5-4.2-1-7.5-2.2-9.7-3.4-1.4-.8-2.3-1.6-2.6-2.4-.3-.8-.5-1.6-.5-2.4v-4.3c0-1.8.7-2.6 2-2.6.5 0 1 .1 1.5.3.5.2 1.3.5 2.1.9 2.9 1.3 6 2.3 9.3 3 3.4.7 6.7 1 10.1 1 5.3 0 9.5-.9 12.4-2.8 2.9-1.9 4.4-4.6 4.4-8.1 0-2.4-.8-4.3-2.3-5.9-1.5-1.6-4.4-3.1-8.6-4.4l-12.3-3.8c-6.2-1.9-10.8-4.8-13.6-8.6-2.8-3.7-4.2-7.9-4.2-12.3 0-3.6.8-6.7 2.3-9.4 1.5-2.7 3.6-5.1 6.1-7 2.5-1.9 5.4-3.4 8.8-4.4 3.4-1 7-1.4 10.7-1.4 1.9 0 3.8.1 5.7.4 1.9.3 3.7.6 5.5 1 1.7.4 3.3.9 4.8 1.4 1.5.5 2.7 1 3.6 1.5 1.2.7 2 1.4 2.5 2.1.5.7.7 1.6.7 2.8v4c0 1.8-.7 2.7-2 2.7-.7 0-1.8-.3-3.2-1-4.8-2.2-10.3-3.3-16.3-3.3-4.8 0-8.6.8-11.3 2.4-2.6 1.6-4 4.1-4 7.6 0 2.4.9 4.4 2.6 6 1.7 1.6 4.8 3.2 9.3 4.6l12 3.8c6.1 2 10.5 4.7 13.1 8.2 2.6 3.5 3.9 7.5 3.9 11.8 0 3.6-.7 7-2.2 9.9-1.5 2.9-3.6 5.4-6.3 7.5-2.6 2.1-5.8 3.6-9.4 4.7-3.8 1.2-7.8 1.8-12.1 1.8z"/>
  <path d="M231 121c-27.9 20.6-68.4 31.5-103.3 31.5-48.8 0-92.8-18.1-126-48.1-2.6-2.4-.3-5.6 2.9-3.7 36 20.8 80.3 33.5 126.1 33.5 30.9 0 64.9-6.4 96.2-19.7 4.7-2.1 8.6 3.1 4.1 6.5z"/>
  <path d="M242.6 107.7c-3.6-4.6-23.6-2.2-32.6-1.1-2.7.3-3.1-2.1-.7-3.8 16-11.2 42.2-8 45.2-4.2 3.1 3.8-.8 30-16.9 42.6-2.3 1.9-4.5 1-3.5-1.6 3.4-8.4 11-25.3 8.5-31.9z"/>
</svg>
