<svg role="img" viewBox="0 0 24 24" xmlns="http://www.w3.org/2000/svg"><title>LlamaIndex</title><path fill="#ffffff" d="M12 2C10.5 2 9.2 3 8.8 4.5c-.3 1-.1 2 .4 2.8L8 8.5C6.5 8.2 5 9 4.3 10.3c-.5 1-.5 2.2 0 3.2l-1.5 1c-1 .7-1.5 1.8-1.5 3 0 2 1.6 3.5 3.5 3.5.8 0 1.5-.3 2.1-.7l1.3.8c-.1.3-.2.6-.2 1 0 1.7 1.3 3 3 3s3-1.3 3-3c0-.4-.1-.7-.2-1l1.3-.8c.6.4 1.3.7 2.1.7 1.9 0 3.5-1.5 3.5-3.5 0-1.2-.6-2.3-1.5-3l-1.5-1c.5-1 .5-2.2 0-3.2-.7-1.3-2.2-2.1-3.7-1.8l-1.2-1.2c.5-.8.7-1.8.4-2.8C15.8 3 14.5 2 13 2h-1zm0 3a1 1 0 1 1 0 2 1 1 0 0 1 0-2zm-5 6a1 1 0 1 1 0 2 1 1 0 0 1 0-2zm10 0a1 1 0 1 1 0 2 1 1 0 0 1 0-2zm-9 6.5a1 1 0 1 1 0 2 1 1 0 0 1 0-2zm8 0a1 1 0 1 1 0 2 1 1 0 0 1 0-2zM12 19a1 1 0 1 1 0 2 1 1 0 0 1 0-2z"/></svg>
