<svg role="img" viewBox="0 0 24 24" xmlns="http://www.w3.org/2000/svg"><title>Pinecone</title><path fill="#ffffff" d="M12 1.5c-.4 0-.8.3-.8.8 0 .7.8 2.5.8 2.5s.8-1.8.8-2.5c0-.5-.4-.8-.8-.8zm-4.8 3c-.3-.2-.7-.1-1 .1-.4.5.1 2.5.1 2.5s1.5-1.2 1.6-1.9c.1-.3 0-.5-.2-.7h-.5zm9.6 0c-.2 0-.4 0-.5.1-.3.2-.3.4-.2.7.1.7 1.6 1.9 1.6 1.9s.5-2-.1-2.5c-.3-.2-.6-.3-.8-.2zM7.2 7.2c-.5-.1-.9.2-1 .5 0 .7 1.2 2.2 1.2 2.2s.8-2 .6-2.5c-.1-.2-.5-.3-.8-.2zm9.6 0c-.3-.1-.7 0-.8.2-.2.5.6 2.5.6 2.5s1.2-1.5 1.2-2.2c-.1-.3-.5-.6-1-.5zM12 7.5c-.5 0-1 .4-1 1 0 .9 1 3 1 3s1-2.1 1-3c0-.6-.5-1-1-1zm-7.8 3c-.4 0-.7.3-.7.7.2.7 1.7 1.8 1.7 1.8s.2-2-.2-2.4c-.2-.1-.5-.1-.8-.1zm15.6 0c-.3 0-.6 0-.8.1-.4.4-.4 2.4-.2 2.4 0 0 1.5-1.1 1.7-1.8 0-.4-.3-.7-.7-.7zM9 12c-.4-.1-.8.1-.9.4-.3.6.4 2.5.4 2.5s1.3-1.3 1.4-2c0-.4-.4-.8-.9-.9zm6 0c-.5.1-.9.5-.9.9.1.7 1.4 2 1.4 2s.7-1.9.4-2.5c-.1-.3-.5-.5-.9-.4zm-3 1.5c-.5 0-.9.4-.9.9 0 .8.9 2.7.9 2.7s.9-1.9.9-2.7c0-.5-.4-.9-.9-.9zm0 5c-.4 0-.7.3-.7.7v3.1c0 .4.3.7.7.7s.7-.3.7-.7v-3.1c0-.4-.3-.7-.7-.7z"/></svg>
